<svg width="16" height="13" viewBox="0 0 16 13" fill="none" xmlns="http://www.w3.org/2000/svg">
<path d="M2.28491 12.5156H13.5974C13.7849 12.5156 13.9412 12.3594 13.9412 12.1719V11.3281H1.94116V12.1719C1.94116 12.3906 2.09741 12.5156 2.28491 12.5156ZM14.5037 2.51562C13.9724 2.51562 13.5662 2.92187 13.5662 3.45312C13.5662 3.70313 13.6599 3.95312 13.8474 4.10937L11.0349 6.98437L8.37866 2.23438C8.65991 2.07813 8.84741 1.76563 8.84741 1.42188C8.84741 0.890625 8.44116 0.484375 7.90991 0.484375C7.37866 0.484375 6.97241 0.890625 6.97241 1.42188C6.97241 1.76563 7.15991 2.07813 7.44116 2.23438L4.78491 6.98437L1.97241 4.10937C2.22241 3.95312 2.31616 3.70313 2.31616 3.45312C2.31616 2.92187 1.90991 2.51562 1.37866 2.51562C0.847412 2.51562 0.441162 2.92187 0.441162 3.45312C0.441162 3.98438 0.847412 4.39063 1.37866 4.39063C1.40991 4.39063 1.44116 4.39063 1.44116 4.39063L1.94116 10.7656H13.9412L14.4412 4.39063C14.4724 4.39063 14.5037 4.39063 14.5037 4.39063C15.0349 4.39063 15.4412 3.98438 15.4412 3.45312C15.4412 2.95312 15.0349 2.51562 14.5037 2.51562Z" fill="white"/>
</svg>
