<svg width="16" height="12" viewBox="0 0 16 12" fill="none" xmlns="http://www.w3.org/2000/svg">
<path d="M1 4.07143C1.74261 4.07143 2.4548 3.80051 2.9799 3.31827C3.505 2.83604 3.8 2.18199 3.8 1.5M12.2 10.5C12.2 9.81801 12.495 9.16396 13.0201 8.68173C13.5452 8.19949 14.2574 7.92857 15 7.92857M1 2.78571C1 2.44472 1.1475 2.1177 1.41005 1.87658C1.6726 1.63546 2.0287 1.5 2.4 1.5H13.6C13.9713 1.5 14.3274 1.63546 14.5899 1.87658C14.8525 2.1177 15 2.44472 15 2.78571V9.21429C15 9.55528 14.8525 9.8823 14.5899 10.1234C14.3274 10.3645 13.9713 10.5 13.6 10.5H2.4C2.0287 10.5 1.6726 10.3645 1.41005 10.1234C1.1475 9.8823 1 9.55528 1 9.21429V2.78571ZM10.1005 5.99999C10.1005 7.06511 9.16031 7.92856 8.00051 7.92856C6.84071 7.92856 5.90051 7.06511 5.90051 5.99999C5.90051 4.93487 6.84071 4.07142 8.00051 4.07142C9.16031 4.07142 10.1005 4.93487 10.1005 5.99999Z" stroke="#F4F4F4" stroke-width="1.2" stroke-linecap="round" stroke-linejoin="round"/>
</svg>
