<svg width="18" height="17" viewBox="0 0 18 17" fill="none" xmlns="http://www.w3.org/2000/svg">
<path d="M5.41177 4.52941V2.76471C5.41177 2.29668 5.59769 1.84782 5.92864 1.51687C6.25958 1.18592 6.70844 1 7.17647 1H10.7059C11.1739 1 11.6228 1.18592 11.9537 1.51687C12.2847 1.84782 12.4706 2.29668 12.4706 2.76471V4.52941M8.94118 8.94118V8.95M1 9.82351C3.46316 11.0647 6.18297 11.7112 8.94118 11.7112C11.6994 11.7112 14.4192 11.0647 16.8824 9.82351M1 6.29412C1 5.82609 1.18592 5.37723 1.51687 5.04628C1.84782 4.71534 2.29668 4.52941 2.76471 4.52941H15.1176C15.5857 4.52941 16.0345 4.71534 16.3655 5.04628C16.6964 5.37723 16.8824 5.82609 16.8824 6.29412V14.2353C16.8824 14.7033 16.6964 15.1522 16.3655 15.4831C16.0345 15.8141 15.5857 16 15.1176 16H2.76471C2.29668 16 1.84782 15.8141 1.51687 15.4831C1.18592 15.1522 1 14.7033 1 14.2353V6.29412Z" stroke="#F4F4F4" stroke-width="1.2" stroke-linecap="round" stroke-linejoin="round"/>
</svg>
