<svg width="14" height="12" viewBox="0 0 14 12" fill="none" xmlns="http://www.w3.org/2000/svg">
<path d="M12.8334 9.20817H8.75002M2.91669 9.20817H1.16669M12.8334 2.7915H11.0834M5.25002 2.7915H1.16669M4.08335 7.45817H7.58335C8.22502 7.45817 8.75002 7.74984 8.75002 8.62484V9.7915C8.75002 10.6665 8.22502 10.9582 7.58335 10.9582H4.08335C3.44169 10.9582 2.91669 10.6665 2.91669 9.7915V8.62484C2.91669 7.74984 3.44169 7.45817 4.08335 7.45817ZM6.41669 1.0415H9.91669C10.5584 1.0415 11.0834 1.33317 11.0834 2.20817V3.37484C11.0834 4.24984 10.5584 4.5415 9.91669 4.5415H6.41669C5.77502 4.5415 5.25002 4.24984 5.25002 3.37484V2.20817C5.25002 1.33317 5.77502 1.0415 6.41669 1.0415Z" stroke="#F4F4F4" stroke-miterlimit="10" stroke-linecap="round" stroke-linejoin="round"/>
</svg>
