<svg width="10" height="10" viewBox="0 0 10 10" fill="none" xmlns="http://www.w3.org/2000/svg">
<rect x="0.4" y="0.4" width="9.2" height="9.2" rx="4.6" stroke="#F4F4F4" stroke-width="0.8"/>
<path d="M4.37209 4.05751C4.37212 3.94546 4.39997 3.83532 4.45296 3.7377C4.50595 3.64009 4.58228 3.55831 4.67459 3.50024C4.7669 3.44217 4.87207 3.40979 4.97995 3.40621C5.08783 3.40263 5.19478 3.42798 5.29047 3.47981C5.38616 3.53165 5.46737 3.60821 5.52625 3.70211C5.58513 3.79602 5.6197 3.90409 5.62662 4.0159C5.63353 4.12772 5.61257 4.23949 5.56575 4.34044C5.51892 4.4414 5.44782 4.52811 5.3593 4.59223C5.20233 4.7069 5.01163 4.85898 4.8593 5.0509C4.70407 5.24524 4.56395 5.50898 4.56395 5.83548C4.56395 5.95553 4.60989 6.07066 4.69167 6.15555C4.77344 6.24044 4.88435 6.28813 5 6.28813C5.11565 6.28813 5.22656 6.24044 5.30833 6.15555C5.39011 6.07066 5.43605 5.95553 5.43605 5.83548C5.43605 5.79022 5.45349 5.72444 5.53023 5.62848C5.62763 5.51624 5.73818 5.41709 5.8593 5.33335C6.07063 5.18003 6.24032 4.97275 6.352 4.73151C6.46367 4.49028 6.51356 4.22323 6.49685 3.95615C6.48013 3.68907 6.39738 3.43097 6.25658 3.20676C6.11578 2.98255 5.92168 2.7998 5.69302 2.67615C5.46436 2.55249 5.20885 2.49211 4.95116 2.50083C4.69346 2.50954 4.44228 2.58706 4.22186 2.7259C4.00144 2.86475 3.81921 3.06022 3.69277 3.29347C3.56632 3.52672 3.49993 3.78986 3.5 4.05751C3.5 4.17755 3.54594 4.29269 3.62772 4.37757C3.70949 4.46246 3.8204 4.51015 3.93605 4.51015C4.05169 4.51015 4.1626 4.46246 4.24438 4.37757C4.32615 4.29269 4.37209 4.17755 4.37209 4.05751ZM5 6.59472C4.88435 6.59472 4.77344 6.6424 4.69167 6.72729C4.60989 6.81218 4.56395 6.92731 4.56395 7.04736C4.56395 7.16741 4.60989 7.28254 4.69167 7.36742C4.77344 7.45231 4.88435 7.5 5 7.5C5.11565 7.5 5.22656 7.45231 5.30833 7.36742C5.39011 7.28254 5.43605 7.16741 5.43605 7.04736C5.43605 6.92731 5.39011 6.81218 5.30833 6.72729C5.22656 6.6424 5.11565 6.59472 5 6.59472Z" fill="#F4F4F4"/>
</svg>
