<svg width="10" height="12" viewBox="0 0 10 12" fill="none" xmlns="http://www.w3.org/2000/svg">
<path fill-rule="evenodd" clip-rule="evenodd" d="M2.25806 3.00375C2.25806 2.60929 2.32899 2.2187 2.46678 1.85427C2.60458 1.48983 2.80655 1.1587 3.06116 0.879779C3.31577 0.600855 3.61804 0.3796 3.95071 0.228647C4.28337 0.0776942 4.63992 0 5 0C5.36008 0 5.71663 0.0776942 6.04929 0.228647C6.38196 0.3796 6.68423 0.600855 6.93884 0.879779C7.19345 1.1587 7.39542 1.48983 7.53322 1.85427C7.67101 2.2187 7.74194 2.60929 7.74194 3.00375C7.74194 3.8004 7.45305 4.56441 6.93884 5.12773C6.42463 5.69104 5.72721 6.0075 5 6.0075C4.27279 6.0075 3.57537 5.69104 3.06116 5.12773C2.54695 4.56441 2.25806 3.8004 2.25806 3.00375ZM5 1.06015C4.52945 1.06015 4.07818 1.26492 3.74546 1.62942C3.41273 1.99391 3.22581 2.48828 3.22581 3.00375C3.22581 3.51923 3.41273 4.01359 3.74546 4.37809C4.07818 4.74258 4.52945 4.94736 5 4.94736C5.47055 4.94736 5.92182 4.74258 6.25454 4.37809C6.58727 4.01359 6.77419 3.51923 6.77419 3.00375C6.77419 2.48828 6.58727 1.99391 6.25454 1.62942C5.92182 1.26492 5.47055 1.06015 5 1.06015ZM2.41935 8.1278C2.03436 8.1278 1.66514 8.29534 1.39291 8.59356C1.12068 8.89179 0.967742 9.29627 0.967742 9.71802V10.5577C0.967742 10.5704 0.976129 10.5817 0.987742 10.5838C3.64516 11.0588 6.35548 11.0588 9.01226 10.5838C9.01774 10.5824 9.02265 10.5791 9.02626 10.5744C9.02987 10.5697 9.03198 10.5638 9.03226 10.5577V9.71802C9.03226 9.29627 8.87932 8.89179 8.60709 8.59356C8.33486 8.29534 7.96564 8.1278 7.58065 8.1278H7.36129C7.34403 8.12812 7.32689 8.13098 7.31032 8.13628L6.75226 8.3363C5.61367 8.74358 4.38633 8.74358 3.24774 8.3363L2.68903 8.13628C2.67288 8.1311 2.65618 8.12825 2.63935 8.1278H2.41935ZM0 9.71802C0 9.0151 0.254896 8.34097 0.708613 7.84393C1.16233 7.34689 1.7777 7.06765 2.41935 7.06765H2.63871C2.75914 7.06812 2.87613 7.08838 2.98968 7.12843L3.54839 7.32845C4.49163 7.66579 5.50837 7.66579 6.45161 7.32845L7.01032 7.12843C7.12323 7.08815 7.24194 7.06765 7.36065 7.06765H7.58065C8.2223 7.06765 8.83767 7.34689 9.29139 7.84393C9.7451 8.34097 10 9.0151 10 9.71802V10.5577C10 11.0906 9.64774 11.5443 9.16774 11.6298C6.40751 12.1234 3.59249 12.1234 0.832258 11.6298C0.600118 11.588 0.389063 11.4573 0.236659 11.2609C0.0842553 11.0646 0.000393016 10.8154 0 10.5577V9.71802Z" fill="#F4F4F4"/>
</svg>
