<svg width="16" height="15" viewBox="0 0 16 15" fill="none" xmlns="http://www.w3.org/2000/svg">
<path d="M5.54541 7.49999L7.14026 9.01249L10.3366 5.98749" stroke="white" stroke-width="0.8" stroke-linecap="round" stroke-linejoin="round"/>
<path d="M7.11379 1.53126C7.57041 1.16251 8.3182 1.16251 8.78144 1.53126L9.82703 2.38126C10.0256 2.54376 10.3961 2.67501 10.6609 2.67501H11.7859C12.4873 2.67501 13.0631 3.21876 13.0631 3.88126V4.94376C13.0631 5.18751 13.202 5.54376 13.3741 5.73126L14.2741 6.71876C14.6645 7.15001 14.6645 7.85626 14.2741 8.29376L13.3741 9.28126C13.202 9.46876 13.0631 9.81876 13.0631 10.0688V11.1313C13.0631 11.7938 12.4873 12.3375 11.7859 12.3375H10.6609C10.4028 12.3375 10.0256 12.4688 9.82703 12.6313L8.78144 13.4813C8.32482 13.85 7.57703 13.85 7.11379 13.4813L6.0682 12.6313C5.86967 12.4688 5.49909 12.3375 5.23438 12.3375H4.08953C3.38806 12.3375 2.81232 11.7938 2.81232 11.1313V10.0625C2.81232 9.81876 2.67335 9.46876 2.50791 9.28126L1.61453 8.28751C1.2307 7.85626 1.2307 7.15626 1.61453 6.72501L2.50791 5.73126C2.67335 5.54376 2.81232 5.19376 2.81232 4.95001V3.87501C2.81232 3.21251 3.38806 2.66876 4.08953 2.66876H5.23438C5.49247 2.66876 5.86967 2.53751 6.0682 2.37501L7.11379 1.53126Z" stroke="white" stroke-width="0.8" stroke-linecap="round" stroke-linejoin="round"/>
</svg>
